<?xml version="1.0" encoding="utf-8"?>
<!-- Generator: Adobe Illustrator 17.1.0, SVG Export Plug-In . SVG Version: 6.00 Build 0)  -->
<!DOCTYPE svg PUBLIC "-//W3C//DTD SVG 1.1//EN" "http://www.w3.org/Graphics/SVG/1.1/DTD/svg11.dtd">
<svg version="1.1" id="Layer_1" xmlns="http://www.w3.org/2000/svg" xmlns:xlink="http://www.w3.org/1999/xlink" x="0px" y="0px"
	 viewBox="0 0 68 68" enable-background="new 0 0 68 68" xml:space="preserve">
<g>
	<g>
		<path fill="#E04324" d="M57.8,10.2C51.5,3.8,43,0.3,34,0.3c-9,0-17.5,3.5-23.8,9.9C3.8,16.6,0.3,25,0.3,34c0,9,3.5,17.5,9.9,23.8
			c6.4,6.4,14.8,9.9,23.8,9.9c9,0,17.5-3.5,23.8-9.9c6.4-6.4,9.9-14.8,9.9-23.8C67.7,25,64.2,16.6,57.8,10.2z M55.4,55.4
			c-5.7,5.7-13.3,8.9-21.4,8.9c-8.1,0-15.7-3.2-21.4-8.9C6.9,49.7,3.7,42.1,3.7,34c0-8.1,3.2-15.7,8.9-21.4
			C18.3,6.9,25.9,3.7,34,3.7c8.1,0,15.7,3.2,21.4,8.9c5.7,5.7,8.9,13.3,8.9,21.4C64.3,42.1,61.1,49.7,55.4,55.4z"/>
		<g>
			<path fill="#E04324" d="M25,46c-0.8,0-1.4-0.6-1.4-1.4V18.5c0-0.8,0.6-1.4,1.4-1.4s1.4,0.6,1.4,1.4v26.1C26.4,45.4,25.8,46,25,46
				z"/>
			<path fill="#E04324" d="M26.6,17.9c-0.9,0.9-2.4,0.9-3.3,0c-0.9-0.9-0.9-2.4,0-3.3c0.9-0.9,2.4-0.9,3.3,0
				C27.6,15.4,27.6,16.9,26.6,17.9"/>
			<g>
				<path fill="#E04324" d="M25,19.9c-1,0-1.9-0.4-2.7-1.1c-1.5-1.5-1.5-3.9,0-5.3c0.7-0.7,1.7-1.1,2.7-1.1c1,0,1.9,0.4,2.7,1.1
					c0.7,0.7,1.1,1.7,1.1,2.7c0,1-0.4,1.9-1.1,2.7C26.9,19.6,26,19.9,25,19.9z M25,15.2c-0.3,0-0.5,0.1-0.7,0.3
					c-0.4,0.4-0.4,1,0,1.3c0.4,0.4,1,0.4,1.3,0c0.2-0.2,0.3-0.4,0.3-0.7c0-0.3-0.1-0.5-0.3-0.7C25.5,15.3,25.2,15.2,25,15.2z"/>
			</g>
			<path fill="#E04324" d="M23.3,45.3c0.9-0.9,2.4-0.9,3.3,0c0.9,0.9,0.9,2.4,0,3.3c-0.9,0.9-2.4,0.9-3.3,0
				C22.4,47.7,22.4,46.2,23.3,45.3"/>
			<g>
				<path fill="#E04324" d="M25,50.7c-1,0-1.9-0.4-2.7-1.1c-0.7-0.7-1.1-1.7-1.1-2.7c0-1,0.4-1.9,1.1-2.7c0.7-0.7,1.7-1.1,2.7-1.1
					c1,0,1.9,0.4,2.7,1.1c0.7,0.7,1.1,1.7,1.1,2.7c0,1-0.4,1.9-1.1,2.7C26.9,50.3,26,50.7,25,50.7z M25,46c-0.3,0-0.5,0.1-0.7,0.3
					c-0.2,0.2-0.3,0.4-0.3,0.7c0,0.3,0.1,0.5,0.3,0.7c0.4,0.4,1,0.4,1.3,0c0.2-0.2,0.3-0.4,0.3-0.7c0-0.3-0.1-0.5-0.3-0.7
					C25.5,46.1,25.2,46,25,46z"/>
			</g>
			<g>
				<path fill="#E04324" d="M43,50.9c-0.8,0-1.4-0.6-1.4-1.4v-26c0-0.8,0.6-1.4,1.4-1.4c0.8,0,1.4,0.6,1.4,1.4v26
					C44.4,50.3,43.8,50.9,43,50.9z"/>
			</g>
			<path fill="#E04324" d="M44.7,22.7c-0.9,0.9-2.4,0.9-3.3,0c-0.9-0.9-0.9-2.4,0-3.3c0.9-0.9,2.4-0.9,3.3,0
				C45.6,20.3,45.6,21.8,44.7,22.7"/>
			<g>
				<path fill="#E04324" d="M43,24.8c-1,0-1.9-0.4-2.7-1.1c-1.5-1.5-1.5-3.9,0-5.3c0.7-0.7,1.7-1.1,2.7-1.1c1,0,1.9,0.4,2.7,1.1
					c0.7,0.7,1.1,1.7,1.1,2.7c0,1-0.4,1.9-1.1,2.7C45,24.4,44,24.8,43,24.8z M43,20.1c-0.3,0-0.5,0.1-0.7,0.3c-0.4,0.4-0.4,1,0,1.3
					c0.4,0.4,1,0.4,1.4,0c0.2-0.2,0.3-0.4,0.3-0.7c0-0.3-0.1-0.5-0.3-0.7C43.5,20.2,43.3,20.1,43,20.1z"/>
			</g>
			<g>
				<path fill="#E04324" d="M43,55.6c-1,0-1.9-0.4-2.7-1.1c-1.5-1.5-1.5-3.9,0-5.3c0.7-0.7,1.7-1.1,2.7-1.1c1,0,1.9,0.4,2.7,1.1
					c0.7,0.7,1.1,1.7,1.1,2.7c0,1-0.4,1.9-1.1,2.7C45,55.2,44,55.6,43,55.6z M43,50.9c-0.3,0-0.5,0.1-0.7,0.3c-0.4,0.4-0.4,1,0,1.3
					c0.4,0.4,1,0.4,1.4,0c0.2-0.2,0.3-0.4,0.3-0.7c0-0.3-0.1-0.5-0.3-0.7C43.5,51,43.3,50.9,43,50.9z"/>
			</g>
			<path fill="#E04324" d="M41.4,50.2c0.9-0.9,2.4-0.9,3.3,0c0.9,0.9,0.9,2.4,0,3.3c-0.9,0.9-2.4,0.9-3.3,0
				C40.4,52.6,40.4,51.1,41.4,50.2"/>
			<g>
				
					<rect x="24" y="32.1" transform="matrix(0.9064 0.4224 -0.4224 0.9064 17.3528 -11.2223)" fill="#E04324" width="19.9" height="2.8"/>
			</g>
		</g>
	</g>
</g>
</svg>
